<svg width="171" height="170" viewBox="0 0 171 170" xmlns="http://www.w3.org/2000/svg"><title>goodreads_g</title><g fill="none" fill-rule="evenodd"><path fill="#F4F1EA" fill-rule="nonzero" d="M0 0h171v170H0z"/><path d="M116.492 84.978h-.31c-3.281 13.869-17.871 21.953-31.648 21.953C62.132 106.931 51 89.536 51 69.413 51 48.374 62.933 31 85.627 31c15.37 0 27.429 9.913 30.555 22.717h.31v-20.89h3.138v75.77c0 21.341-12.54 31.403-33.544 31.403-16.286 0-30.24-7.158-30.71-24.705h3.149c.63 15.557 12.85 21.653 27.406 21.653 19.44 0 30.56-8.988 30.56-28.35v-23.62zM85.627 34.053c-20.843 0-31.499 16.31-31.499 35.36 0 19.36 10.656 34.475 30.229 34.475 20.695 0 31.986-15.577 31.986-34.475.149-17.997-10.49-35.36-30.716-35.36z" fill="#382110"/></g></svg>